<svg width="8" height="6" viewBox="0 0 8 6" fill="none" xmlns="http://www.w3.org/2000/svg">
<path d="M0.799805 1.40001C0.799805 1.18783 0.88409 0.98435 1.03412 0.834321C1.18415 0.684292 1.38763 0.600006 1.5998 0.600006H3.9998C4.21198 0.600006 4.41546 0.684292 4.56549 0.834321C4.71552 0.98435 4.7998 1.18783 4.7998 1.40001V4.60001C4.7998 4.81218 4.71552 5.01566 4.56549 5.16569C4.41546 5.31572 4.21198 5.40001 3.9998 5.40001H1.5998C1.38763 5.40001 1.18415 5.31572 1.03412 5.16569C0.88409 5.01566 0.799805 4.81218 0.799805 4.60001V1.40001ZM5.821 1.84241C5.75457 1.8756 5.69869 1.92664 5.65963 1.9898C5.62056 2.05295 5.59984 2.12574 5.5998 2.20001V3.80001C5.59984 3.87427 5.62056 3.94706 5.65963 4.01022C5.69869 4.07337 5.75457 4.12441 5.821 4.15761L6.621 4.55761C6.68197 4.58807 6.74971 4.60245 6.8178 4.59939C6.88589 4.59632 6.95206 4.57591 7.01005 4.54008C7.06803 4.50426 7.1159 4.45422 7.14911 4.3947C7.18232 4.33518 7.19977 4.26816 7.1998 4.20001V1.80001C7.19977 1.73185 7.18232 1.66483 7.14911 1.60531C7.1159 1.5458 7.06803 1.49575 7.01005 1.45993C6.95206 1.4241 6.88589 1.40369 6.8178 1.40062C6.74971 1.39756 6.68197 1.41194 6.621 1.44241L5.821 1.84241Z" fill="#A91F2F"/>
</svg>
